<svg xmlns="http://www.w3.org/2000/svg" viewBox="0 0 1325 270" fill="currentColor" fill-rule="evenodd" clip-rule="evenodd" stroke-linejoin="round" stroke-miterlimit="2">
  <path d="M795.66 207.51v58.59H528.99V0h69.09l197.58 207.51zm-4.17 1.67v52.75H533.16V4.17h63.13l195.2 205z"/>
  <path d="M662.04 0c73.43 0 133.05 59.62 133.05 133.05S735.47 266.1 662.04 266.1s-133.05-59.62-133.05-133.05S588.61 0 662.04 0zm0 4.17c71.13 0 128.88 57.75 128.88 128.88s-57.75 128.88-128.88 128.88-128.88-57.75-128.88-128.88S590.9 4.17 662.04 4.17z"/>
  <path d="M795.66 0H528.99l131.78 266.1L795.66 0zM578.63 4.17h210.24L660.82 256.8 535.71 4.17h42.92z"/>
  <path d="M529 0v266.1h266.66V0H528.99zm4.16 4.17h258.33v257.76H533.16V4.17z"/>
  <path d="M52.9 164a29.1 29.1 0 01-4.87-.41 16.37 16.37 0 01-4.62-1.5 15.54 15.54 0 01-6.8-6.8 16.2 16.2 0 01-1.53-4.62 28.37 28.37 0 01-.42-4.83v-9.17c0-1.6.14-3.22.42-4.83.27-1.61.77-3.14 1.5-4.58a15.86 15.86 0 0111.33-8.33 28.38 28.38 0 019.67 0 15.66 15.66 0 0112.83 12.91c.28 1.61.42 3.22.42 4.83v7H40.08v2.17c0 1.17.1 2.33.29 3.5.2 1.17.54 2.28 1.04 3.33a11.2 11.2 0 004.7 5c1.03.56 2.13.95 3.3 1.17 1.17.22 2.33.33 3.5.33.89 0 1.78-.04 2.67-.12.88-.09 1.76-.24 2.62-.46.86-.22 1.7-.53 2.5-.92a9.1 9.1 0 002.2-1.5 7.38 7.38 0 002.34-4.75h5.42c-.11 1.4-.42 2.71-.92 3.96s-1.2 2.38-2.12 3.38c-.92 1-1.96 1.84-3.13 2.54a18.14 18.14 0 01-7.58 2.5c-1.33.14-2.67.2-4 .2zm-12.82-25.16H65.4v-2.17c0-1.16-.1-2.33-.3-3.5a13.2 13.2 0 00-1-3.33 11.05 11.05 0 00-4.63-5c-.99-.55-2.07-.94-3.24-1.17a18.7 18.7 0 00-7 0 10.81 10.81 0 00-7.87 6.17c-.48 1.06-.8 2.17-1 3.33-.2 1.17-.3 2.34-.3 3.5v2.17zm76.25 24.5l-16.5-44.17h5.91l10.59 29.42c.55 1.5 1.08 3 1.58 4.5l1.5 4.5 1.5-4.5c.5-1.5 1.03-3 1.58-4.5l10.59-29.42h5.91l-16.5 44.17h-6.16zm69.74.66c-1.6 0-3.22-.13-4.83-.41a15.65 15.65 0 01-12.83-12.92 28.48 28.48 0 01-.42-4.83v-9.17c0-1.6.14-3.22.42-4.83.28-1.61.78-3.14 1.5-4.58a15.83 15.83 0 0111.33-8.33 28.37 28.37 0 019.67 0 15.68 15.68 0 0112.83 12.91c.28 1.61.42 3.22.42 4.83v9.17c0 1.61-.14 3.22-.42 4.83a16.44 16.44 0 01-1.5 4.59 15.83 15.83 0 01-11.33 8.33c-1.61.28-3.22.42-4.84.42zm0-4.83c1.17 0 2.34-.1 3.5-.33a10.81 10.81 0 007.88-6.17c.47-1.05.8-2.16 1-3.33.2-1.17.3-2.33.3-3.5v-9.17c0-1.16-.1-2.33-.3-3.5a13.6 13.6 0 00-1-3.33 11.03 11.03 0 00-7.88-6.17 18.69 18.69 0 00-7 0 10.81 10.81 0 00-7.87 6.17 13.6 13.6 0 00-1 3.33 21.3 21.3 0 00-.3 3.5v9.17c0 1.17.1 2.33.3 3.5.2 1.17.53 2.28 1 3.33a11.03 11.03 0 007.88 6.17c1.16.22 2.33.33 3.5.33zm51.5-57.08h5.33v61.25h-5.33zm53.75 61.25l-16.5-44.17h5.92l10.58 29.42c.56 1.5 1.09 3 1.59 4.5l1.5 4.5 1.5-4.5c.5-1.5 1.03-3 1.58-4.5l10.59-29.42h5.91l-16.5 44.17h-6.16zm69.92.66a29.1 29.1 0 01-4.87-.41 16.36 16.36 0 01-4.63-1.5 15.54 15.54 0 01-6.8-6.8 16.2 16.2 0 01-1.53-4.62 28.48 28.48 0 01-.42-4.83v-9.17c0-1.6.14-3.22.42-4.83.28-1.61.78-3.14 1.5-4.58a15.83 15.83 0 0111.33-8.33 28.37 28.37 0 019.67 0 15.68 15.68 0 0112.83 12.91c.28 1.61.42 3.22.42 4.83v7H348.4v2.17c0 1.17.1 2.33.29 3.5.2 1.17.54 2.28 1.04 3.33a11.2 11.2 0 004.71 5c1.03.56 2.13.95 3.3 1.17 1.16.22 2.33.33 3.5.33.88 0 1.77-.04 2.66-.12.89-.09 1.76-.24 2.62-.46.86-.22 1.7-.53 2.5-.92.8-.38 1.55-.88 2.21-1.5a7.42 7.42 0 001.63-2.16c.41-.84.65-1.7.7-2.59H379c-.1 1.4-.41 2.71-.91 3.96a11 11 0 01-2.13 3.38c-.92 1-1.96 1.84-3.12 2.54a18.14 18.14 0 01-7.59 2.5c-1.33.14-2.66.2-4 .2zm-12.83-25.16h25.33v-2.17c0-1.16-.1-2.33-.29-3.5a13.6 13.6 0 00-1-3.33 11.03 11.03 0 00-7.88-6.17 18.69 18.69 0 00-7 0 10.81 10.81 0 00-7.87 6.17 13.6 13.6 0 00-1 3.33 21.3 21.3 0 00-.3 3.5v2.17zM425.74 164c-1.55 0-3.08-.16-4.58-.5a13.57 13.57 0 01-7.63-4.74 16.3 16.3 0 01-2.33-3.96 18.62 18.62 0 01-1.2-4.38c-.23-1.5-.34-3.02-.34-4.58v-9.17c0-1.55.1-3.08.33-4.58.22-1.5.63-2.96 1.21-4.38a16.3 16.3 0 012.33-3.95 13.21 13.21 0 017.63-4.75 21.09 21.09 0 019.04 0 12.63 12.63 0 017.33 4.7c.92 1.2 1.66 2.5 2.21 3.88v-25.5h5.42v61.25h-5.42v-8.42a16.26 16.26 0 01-2.2 3.88 12.84 12.84 0 01-7.34 4.7c-1.47.34-2.96.5-4.46.5zm1.92-4.83c1.16 0 2.3-.1 3.41-.33a9.74 9.74 0 003.13-1.2 11.29 11.29 0 004.38-5.13c.44-1.06.75-2.16.91-3.3.17-1.13.25-2.26.25-3.37v-9.17c0-1.1-.08-2.23-.25-3.37a13.52 13.52 0 00-.92-3.3 11.3 11.3 0 00-1.79-2.91 10.3 10.3 0 00-2.58-2.2 9.74 9.74 0 00-3.13-1.22 17.4 17.4 0 00-6.87 0c-1.14.23-2.22.62-3.25 1.17a9.7 9.7 0 00-2.7 2.17 11.6 11.6 0 00-1.88 2.91 13.6 13.6 0 00-1 3.3c-.2 1.13-.3 2.29-.3 3.45v9.17c0 1.17.1 2.32.3 3.46.2 1.14.52 2.23 1 3.29a11.6 11.6 0 001.87 2.92 9.7 9.7 0 002.71 2.16c1.03.56 2.11.95 3.25 1.17 1.14.22 2.3.33 3.46.33zM897.5 164a38 38 0 01-4-.2 20.15 20.15 0 01-7.59-2.33 11.46 11.46 0 01-5.17-5.84c-.5-1.25-.75-2.54-.75-3.87v-.09h5.42c0 .9.2 1.74.58 2.55.4.8.9 1.5 1.54 2.08a8.72 8.72 0 002.21 1.46c.83.39 1.67.68 2.5.87.83.2 1.7.34 2.58.42a28.68 28.68 0 005.3 0 21 21 0 002.58-.42c.86-.2 1.7-.47 2.5-.83a8.8 8.8 0 002.2-1.42 6.48 6.48 0 001.6-2.08 5.78 5.78 0 00-.18-5.38 6.25 6.25 0 00-2-2.16 9.75 9.75 0 00-2.66-1.25c-.95-.28-1.92-.5-2.92-.67-1.44-.33-2.9-.65-4.37-.96-1.48-.3-2.93-.66-4.38-1.08a30.17 30.17 0 01-4.25-1.59 14.8 14.8 0 01-3.75-2.45c-1.1-1-2-2.21-2.67-3.63a10.16 10.16 0 01-.29-8.16 11.68 11.68 0 011.96-3.38c.83-1 1.82-1.83 2.96-2.5a18.47 18.47 0 017.34-2.38 36.87 36.87 0 017.78 0 18.42 18.42 0 017.3 2.38 11.55 11.55 0 014.91 5.75c.48 1.22.71 2.47.71 3.75v.17h-5.42v-.09c0-.83-.18-1.63-.54-2.41a7.08 7.08 0 00-1.41-2.04 7.8 7.8 0 00-2.05-1.46c-.77-.4-1.56-.68-2.37-.88-.8-.2-1.64-.33-2.5-.41a26.48 26.48 0 00-5.04 0c-.84.08-1.67.22-2.5.41-.84.2-1.63.49-2.38.88s-1.43.87-2.04 1.45a6.56 6.56 0 00-2 4.55c0 1.05.3 2.05.92 3 .6.94 1.37 1.7 2.29 2.25.92.55 1.9.96 2.96 1.2 1.05.25 2.12.5 3.2.71l3.21.67a58.32 58.32 0 016.21 1.67c1.03.33 2.03.75 3 1.25.98.5 1.9 1.1 2.75 1.79.86.7 1.61 1.47 2.25 2.33a9.7 9.7 0 011.46 2.88 10.74 10.74 0 01-.25 7.12 11.43 11.43 0 01-5.2 5.84 19.98 19.98 0 01-7.54 2.33c-1.34.14-2.68.2-4 .2zm57.5 16.42a382.64 382.64 0 013.82-10.33l2.59-7.08-16.09-43.84H951l13.25 36.84 13.25-36.84h5.67l-22.5 61.25H955zm75.83-16.42c-1.33 0-2.67-.06-4-.2a20.2 20.2 0 01-7.58-2.33 11.45 11.45 0 01-5.17-5.84c-.5-1.25-.75-2.54-.75-3.87v-.09h5.42c0 .9.2 1.74.58 2.55.39.8.9 1.5 1.54 2.08a8.73 8.73 0 002.21 1.46c.83.39 1.67.68 2.5.87.83.2 1.7.34 2.58.42a28.68 28.68 0 005.3 0 21 21 0 002.58-.42c.86-.2 1.7-.47 2.5-.83s1.54-.84 2.2-1.42a6.5 6.5 0 001.59-2.08 5.78 5.78 0 00-.17-5.38 6.24 6.24 0 00-2-2.16 9.76 9.76 0 00-2.66-1.25 24.8 24.8 0 00-2.92-.67c-1.44-.33-2.9-.65-4.37-.96-1.48-.3-2.94-.66-4.38-1.08a30.22 30.22 0 01-4.25-1.59 14.8 14.8 0 01-3.75-2.45c-1.11-1-2-2.21-2.67-3.63a10.18 10.18 0 01-.29-8.16 11.68 11.68 0 011.96-3.38c.83-1 1.82-1.83 2.96-2.5a18.47 18.47 0 017.34-2.38 36.84 36.84 0 017.78 0 18.42 18.42 0 017.3 2.38 11.55 11.55 0 014.91 5.75c.47 1.22.71 2.47.71 3.75v.17h-5.42v-.09c0-.83-.18-1.63-.54-2.41a7.08 7.08 0 00-1.41-2.04 7.79 7.79 0 00-2.05-1.46 10.8 10.8 0 00-2.37-.88c-.8-.2-1.64-.33-2.5-.41a26.48 26.48 0 00-5.04 0c-.84.08-1.67.22-2.5.41-.84.2-1.63.49-2.38.88s-1.43.87-2.04 1.45a6.55 6.55 0 00-2 4.55c0 1.05.3 2.05.92 3 .6.94 1.37 1.7 2.29 2.25.92.55 1.9.96 2.96 1.2 1.05.25 2.12.5 3.2.71l3.21.67a58.09 58.09 0 016.21 1.67c1.03.33 2.03.75 3 1.25.97.5 1.9 1.1 2.75 1.79.86.7 1.61 1.47 2.25 2.33a9.67 9.67 0 011.46 2.88 10.74 10.74 0 01-.25 7.12 11.43 11.43 0 01-5.2 5.84 19.98 19.98 0 01-7.54 2.33c-1.34.14-2.68.2-4.01.2zm67.41-.66c-1 0-2-.08-3-.25-1-.17-1.95-.47-2.83-.92a9.26 9.26 0 01-4.17-4.16 9.95 9.95 0 01-.92-2.84c-.16-1-.25-2-.25-3v-28.16h-10.66v-4.84h10.66V102.1h5.34v17.08h14.16v4.84h-14.16v28.16c0 .84.1 1.66.33 2.46.22.8.6 1.52 1.13 2.13a4.56 4.56 0 001.95 1.33c.78.28 1.59.42 2.42.42h8.33v4.83h-8.33zm53.67.66a29.1 29.1 0 01-4.88-.41 16.37 16.37 0 01-4.62-1.5 15.54 15.54 0 01-6.8-6.8 16.2 16.2 0 01-1.53-4.62 28.37 28.37 0 01-.42-4.83v-9.17c0-1.6.14-3.22.42-4.83.28-1.61.78-3.14 1.5-4.58a15.86 15.86 0 0111.33-8.33 28.38 28.38 0 019.67 0 15.66 15.66 0 0112.83 12.91c.28 1.61.42 3.22.42 4.83v7h-30.75v2.17c0 1.17.1 2.33.29 3.5.2 1.17.54 2.28 1.04 3.33a11.2 11.2 0 004.7 5c1.04.56 2.13.95 3.3 1.17 1.17.22 2.33.33 3.5.33.89 0 1.78-.04 2.67-.12.89-.09 1.76-.24 2.62-.46.86-.22 1.7-.53 2.5-.92a9.1 9.1 0 002.21-1.5 7.38 7.38 0 002.33-4.75h5.42c-.11 1.4-.42 2.71-.92 3.96s-1.2 2.38-2.12 3.38c-.92 1-1.96 1.84-3.13 2.54a18.14 18.14 0 01-7.58 2.5c-1.33.14-2.67.2-4 .2zm-12.83-25.16h25.33v-2.17c0-1.16-.1-2.33-.3-3.5a13.2 13.2 0 00-1-3.33 11.05 11.05 0 00-4.63-5c-.99-.55-2.07-.94-3.24-1.17a18.7 18.7 0 00-7 0 10.81 10.81 0 00-7.87 6.17c-.47 1.06-.8 2.17-1 3.33-.2 1.17-.3 2.34-.3 3.5v2.17zm61.91 24.5v-44.17h5.42v5.59a10.87 10.87 0 013.88-4.7c.85-.6 1.78-1 2.78-1.22 1-.22 2.03-.33 3.09-.33 1.16 0 2.34.16 3.54.5a8.8 8.8 0 013.2 1.62 9.5 9.5 0 012.34 2.71 14.67 14.67 0 011.42 3.33c.33-1.16.8-2.27 1.41-3.33a9.82 9.82 0 012.3-2.7 8.6 8.6 0 013.12-1.63 12.99 12.99 0 016.92-.09c1.1.28 2.12.75 3.04 1.42.91.67 1.7 1.47 2.33 2.42a13.96 13.96 0 012.33 6.25c.14 1.1.21 2.22.21 3.33v31h-5.41v-31c0-1.11-.13-2.22-.38-3.33a7.48 7.48 0 00-1.42-3 6.41 6.41 0 00-2.66-2 8.61 8.61 0 00-6.63 0 6.45 6.45 0 00-2.62 2 7.94 7.94 0 00-1.46 3 13.68 13.68 0 00-.42 3.33v31H1222v-31c0-1.11-.14-2.22-.42-3.33a7.96 7.96 0 00-1.45-3 6.46 6.46 0 00-2.63-2 8.51 8.51 0 00-6.63 0 6.4 6.4 0 00-2.66 2 7.49 7.49 0 00-1.42 3 15.14 15.14 0 00-.37 3.33v31H1201zm96.5.66c-1.33 0-2.67-.06-4-.2a20.2 20.2 0 01-7.58-2.33 11.46 11.46 0 01-5.17-5.84c-.5-1.25-.75-2.54-.75-3.87v-.09h5.42c0 .9.2 1.74.58 2.55.39.8.9 1.5 1.54 2.08a8.72 8.72 0 002.21 1.46c.83.39 1.67.68 2.5.87.83.2 1.7.34 2.58.42a28.68 28.68 0 005.3 0 21 21 0 002.58-.42c.86-.2 1.7-.47 2.5-.83a8.8 8.8 0 002.2-1.42 6.48 6.48 0 001.59-2.08 5.78 5.78 0 00-.17-5.38 6.25 6.25 0 00-2-2.16 9.75 9.75 0 00-2.66-1.25c-.95-.28-1.92-.5-2.92-.67-1.44-.33-2.9-.65-4.37-.96-1.48-.3-2.94-.66-4.38-1.08a30.17 30.17 0 01-4.25-1.59 14.8 14.8 0 01-3.75-2.45c-1.11-1-2-2.21-2.67-3.63a10.16 10.16 0 01-.29-8.16 11.68 11.68 0 011.96-3.38c.83-1 1.82-1.83 2.96-2.5a18.47 18.47 0 017.34-2.38 36.87 36.87 0 017.78 0 18.42 18.42 0 017.3 2.38 11.55 11.55 0 014.91 5.75c.47 1.22.71 2.47.71 3.75v.17h-5.42v-.09c0-.83-.18-1.63-.54-2.41a7.08 7.08 0 00-1.41-2.04 7.8 7.8 0 00-2.05-1.46 10.8 10.8 0 00-2.37-.88c-.8-.2-1.64-.33-2.5-.41a26.48 26.48 0 00-5.04 0c-.84.08-1.67.22-2.5.41-.84.2-1.63.49-2.38.88s-1.43.87-2.04 1.45a6.56 6.56 0 00-2 4.55c0 1.05.3 2.05.92 3 .6.94 1.37 1.7 2.29 2.25.92.55 1.9.96 2.96 1.2 1.05.25 2.12.5 3.2.71l3.21.67a58.32 58.32 0 016.21 1.67c1.03.33 2.03.75 3 1.25.97.5 1.89 1.1 2.75 1.79.86.7 1.61 1.47 2.25 2.33a9.7 9.7 0 011.46 2.88 10.74 10.74 0 01-.25 7.12 11.43 11.43 0 01-5.2 5.84 19.98 19.98 0 01-7.54 2.33c-1.34.14-2.68.2-4.01.2z" fill-rule="nonzero"/>
</svg>