<?xml version="1.0" standalone="no"?>
<!DOCTYPE svg PUBLIC "-//W3C//DTD SVG 20010904//EN"
 "http://www.w3.org/TR/2001/REC-SVG-20010904/DTD/svg10.dtd">
<svg version="1.0" xmlns="http://www.w3.org/2000/svg"
 width="72.000000pt" height="72.000000pt" viewBox="0 0 72.000000 72.000000"
 preserveAspectRatio="xMidYMid meet">
<metadata>
Created by potrace 1.16, written by Peter Selinger 2001-2019
</metadata>
<g transform="translate(0.000000,72.000000) scale(0.004762,-0.004762)"
fill="#000000" stroke="none">
<path d="M7358 11305 c1 -327 -1 -595 -5 -595 -9 0 -272 264 -406 408 -65 70
-97 113 -126 175 -33 68 -48 87 -88 114 -74 50 -128 66 -198 59 -110 -11 -195
-69 -247 -169 -31 -60 -31 -183 0 -248 45 -92 139 -157 243 -166 55 -5 77 -1
221 48 l159 53 215 -215 c185 -186 214 -219 214 -246 0 -48 -32 -80 -87 -87
-101 -15 -194 -37 -292 -70 -136 -47 -174 -51 -236 -31 -65 22 -97 48 -375
310 -47 44 -123 114 -169 155 -47 41 -110 98 -140 125 -55 50 -261 200 -333
244 -21 12 -38 28 -38 35 0 17 95 106 145 136 40 24 74 58 75 73 0 11 -51 -26
-150 -108 -47 -39 -114 -91 -150 -117 -36 -26 -104 -84 -153 -130 -78 -75 -87
-87 -87 -119 0 -26 -11 -53 -36 -90 -20 -30 -48 -88 -61 -129 -14 -41 -31 -82
-37 -90 -13 -15 -26 -42 -101 -205 -20 -44 -45 -97 -56 -117 -21 -39 -49 -154
-48 -198 l0 -25 16 23 c8 12 21 22 27 22 6 0 63 -54 127 -120 l116 -121 6 -59
c9 -101 57 -158 141 -167 66 -8 102 11 137 71 35 61 37 109 8 172 -24 54 -17
85 32 153 42 56 93 81 168 81 49 0 62 -4 71 -19 6 -13 10 -183 10 -483 l0
-464 -25 -50 c-14 -27 -55 -82 -91 -122 -64 -70 -69 -73 -108 -71 -99 5 -115
1 -160 -41 l-43 -40 -239 0 c-132 0 -246 4 -254 10 -9 6 -17 5 -22 -3 -11 -17
-10 -149 1 -142 5 3 12 1 16 -5 4 -6 97 -10 255 -10 l249 0 22 -31 c15 -22 19
-36 13 -49 -5 -10 -66 -83 -135 -162 -69 -79 -165 -190 -214 -247 -96 -112
-90 -111 -113 -31 -9 32 -10 29 -13 -40 -1 -41 -3 -109 -5 -150 -4 -105 20
-300 45 -363 11 -28 39 -113 62 -187 23 -74 48 -148 56 -165 l14 -30 -5 30
c-2 17 -9 50 -14 75 -5 25 -13 69 -16 98 -12 92 23 70 197 -128 120 -136 333
-371 440 -485 l66 -70 1 -304 0 -304 -32 6 c-18 3 -64 13 -103 21 -38 9 -93
16 -120 16 -50 0 -95 20 -95 42 0 6 -27 78 -60 160 -33 83 -60 156 -60 163 0
19 -27 38 -35 25 -4 -6 -63 -10 -158 -10 -84 0 -158 -4 -166 -9 -12 -8 -13
-151 -9 -942 3 -514 9 -942 13 -952 7 -16 24 -17 209 -15 l201 3 6 735 c5 656
9 767 25 819 8 25 31 -7 38 -53 4 -25 20 -62 39 -87 31 -43 33 -44 82 -41 156
10 334 -85 512 -272 108 -114 136 -128 167 -84 24 34 19 62 -20 114 -37 48
-272 284 -284 284 -3 0 -6 17 -6 38 0 20 -5 75 -12 122 -16 112 -16 266 0 276
13 8 155 -136 299 -302 43 -50 92 -97 109 -104 49 -20 125 -8 161 26 61 58 63
152 4 211 -29 29 -39 33 -85 33 -35 0 -65 -7 -91 -22 l-38 -21 -43 39 c-65 59
-255 264 -285 307 -14 20 -23 40 -19 45 12 11 515 3 569 -10 41 -10 52 -10 75
4 57 34 55 107 -3 135 -29 14 -42 15 -86 5 -65 -15 -526 -16 -566 -1 -34 13
-229 211 -441 449 -216 241 -286 309 -362 349 -36 19 -68 39 -72 44 -3 6 -14
60 -24 122 l-17 112 84 84 c46 46 135 146 197 221 126 151 149 175 160 164 4
-4 9 -132 13 -284 6 -319 8 -327 105 -473 85 -128 181 -220 299 -286 241 -136
407 -160 635 -91 36 11 127 49 202 85 78 38 143 63 152 60 14 -6 16 -37 17
-234 0 -125 4 -255 8 -288 5 -41 4 -70 -5 -90 -20 -48 -10 -546 12 -611 40
-118 131 -196 278 -239 86 -25 348 -17 425 13 106 42 184 110 229 202 27 55
27 57 30 309 2 139 1 269 -3 287 -6 32 -8 34 -49 34 -75 0 -76 -2 -76 -276 0
-133 -5 -255 -10 -276 -13 -44 -52 -93 -91 -113 -63 -33 -154 -10 -185 47 -11
18 -13 243 -14 1101 0 1057 0 1079 20 1117 29 56 71 83 195 123 61 19 135 46
165 59 30 14 93 37 140 53 47 15 101 39 120 53 l34 26 297 4 c164 3 373 1 464
-3 162 -7 167 -8 177 -31 6 -13 28 -32 50 -41 57 -27 60 -46 56 -368 -3 -270
-4 -282 -27 -333 -33 -73 -51 -75 -146 -18 -195 118 -379 161 -592 137 -196
-22 -336 -91 -475 -232 -95 -96 -198 -253 -198 -302 0 -20 405 -220 515 -254
98 -31 256 -41 347 -23 220 42 462 217 589 425 53 86 79 146 93 208 4 16 7
142 7 280 -1 139 3 259 9 267 10 16 75 -49 287 -290 65 -74 134 -145 153 -158
l35 -23 6 28 c19 84 13 105 -53 174 -101 105 -392 438 -402 459 -6 13 -3 29
11 52 l19 33 256 3 255 2 10 48 c17 88 35 82 -258 82 l-259 0 -22 26 c-41 46
-81 64 -146 64 l-60 0 -76 95 c-41 52 -82 108 -91 124 -13 26 -15 97 -15 491
0 299 4 468 10 481 15 26 86 25 145 -2 51 -24 88 -63 118 -125 l20 -42 -23
-53 c-49 -116 13 -229 126 -229 78 0 146 69 157 160 5 45 14 60 66 118 32 37
93 100 135 141 l76 73 0 62 c0 117 -7 114 -179 -75 -85 -93 -164 -172 -177
-175 -37 -9 -58 -1 -79 34 -59 96 -125 179 -161 204 -44 30 -138 58 -191 58
-27 0 -33 4 -34 23 0 12 -1 152 -2 310 l-2 288 35 29 c44 36 186 116 245 139
l45 17 -55 59 c-50 55 -55 58 -72 44 -10 -9 -40 -28 -68 -44 -176 -98 -351
-242 -685 -561 -219 -209 -257 -239 -319 -250 -39 -8 -113 8 -261 56 -81 27
-146 41 -255 58 -41 6 -53 13 -72 41 -13 19 -23 38 -23 43 0 10 324 352 390
412 39 35 45 37 83 31 42 -7 99 -25 212 -65 151 -54 323 17 389 160 31 69 29
179 -6 246 -32 61 -90 115 -155 144 -38 17 -61 21 -114 17 -129 -8 -228 -80
-273 -198 -18 -49 -51 -87 -271 -313 -137 -141 -253 -256 -257 -256 -5 0 -8
270 -8 600 l0 600 -62 0 -63 0 3 -595z m-718 30 c71 -37 112 -123 90 -191 -33
-103 -85 -144 -184 -144 -57 0 -66 3 -103 35 -41 35 -73 101 -73 151 0 56 66
149 113 159 12 2 31 6 42 8 28 6 85 -3 115 -18z m1756 -6 c47 -28 74 -85 74
-151 0 -105 -73 -178 -178 -178 -60 0 -95 15 -133 57 -89 96 -46 253 79 294
41 13 119 2 158 -22z m-2816 -276 c61 -23 208 -99 248 -130 l32 -24 -2 -312
-3 -311 -73 -13 c-40 -6 -90 -17 -110 -24 -48 -16 -117 -87 -176 -181 -33 -54
-54 -78 -68 -78 -11 0 -47 29 -83 65 -162 166 -245 261 -245 279 0 30 28 97
87 214 29 57 53 109 53 117 0 7 4 15 8 17 5 2 38 49 73 106 35 57 71 111 79
120 9 9 40 52 69 95 29 42 56 77 59 77 4 0 27 -8 52 -17z m485 -322 c95 -87
281 -266 418 -403 91 -92 137 -144 137 -159 0 -12 -19 -56 -42 -98 -63 -115
-83 -159 -108 -241 -13 -41 -26 -79 -31 -84 -4 -4 -38 -10 -76 -13 l-68 -5
-125 143 c-69 79 -140 163 -158 187 l-34 43 1 336 c1 185 4 340 7 345 7 11 19
3 79 -51z m2795 -295 l0 -342 -37 -45 c-21 -24 -69 -80 -108 -124 -40 -44 -91
-106 -114 -138 l-43 -59 -76 7 c-43 4 -80 10 -83 14 -4 3 -16 40 -29 81 -12
41 -51 133 -86 203 -39 77 -62 136 -59 146 6 19 393 407 534 535 46 41 87 73
92 70 5 -3 9 -159 9 -348z m-1303 -156 c264 -43 480 -193 604 -420 62 -112 89
-232 89 -390 0 -137 -10 -196 -53 -300 -152 -375 -555 -593 -942 -509 -216 47
-387 157 -512 329 -112 152 -158 299 -157 495 1 228 80 411 245 573 117 115
276 191 469 225 49 8 196 7 257 -3z m-1502 -445 c24 -24 69 -75 99 -113 66
-81 69 -104 27 -177 -40 -69 -180 -237 -192 -230 -10 7 -13 483 -3 534 4 17
11 31 16 31 5 0 29 -20 53 -45z m2799 -1 c8 -64 6 -475 -3 -498 -6 -16 -19 -5
-87 69 -153 168 -169 216 -99 301 69 84 157 174 170 174 7 0 15 -19 19 -46z
m-317 -176 c41 -52 8 -118 -58 -118 -33 0 -41 4 -49 26 -24 62 0 104 60 104
21 0 42 -6 47 -12z m-2139 -185 c6 -9 12 -36 12 -59 0 -53 32 -209 60 -296 12
-37 46 -108 75 -159 29 -50 51 -98 48 -105 -8 -20 -803 -21 -803 -1 0 8 19 39
43 69 146 192 308 393 419 522 50 57 52 58 92 52 23 -4 47 -14 54 -23z m2166
-5 c17 -18 47 -53 66 -77 19 -25 76 -93 125 -151 86 -103 187 -226 268 -330
21 -27 36 -54 32 -60 -4 -7 -137 -10 -401 -10 -323 0 -396 2 -400 14 -3 7 21
65 54 128 68 131 99 236 116 391 14 118 19 127 75 127 24 0 41 -8 65 -32z
m-2133 -758 c245 0 246 0 282 -25 20 -13 55 -29 78 -35 23 -6 96 -33 163 -60
66 -26 151 -57 188 -69 89 -27 119 -43 155 -85 61 -68 58 -15 56 -1169 -1
-952 -3 -1060 -17 -1082 -23 -34 -59 -56 -103 -62 -49 -6 -112 33 -145 91 -23
40 -23 45 -20 279 2 131 0 252 -3 268 -5 21 -20 39 -48 57 -39 25 -42 30 -41
69 0 23 6 48 13 56 9 11 12 74 11 234 -1 120 -1 230 -1 245 1 22 9 32 41 48
23 12 43 27 46 35 18 46 -97 225 -218 341 -168 162 -327 226 -558 226 -195 1
-361 -45 -514 -142 -66 -42 -67 -42 -88 -24 -48 43 -51 69 -53 398 l-2 309 44
19 c23 10 43 22 43 27 0 4 6 16 14 27 12 16 31 20 113 25 54 4 148 5 208 3 61
-2 221 -4 356 -4z m105 -971 c68 -64 40 -173 -63 -249 -79 -58 -166 -60 -252
-5 -45 28 -91 111 -91 164 0 36 32 101 49 101 4 0 11 -18 15 -41 8 -53 53 -99
95 -99 27 0 33 6 56 55 36 76 77 109 128 102 21 -3 50 -16 63 -28z m2134 15
c58 -35 74 -97 41 -162 -50 -97 -181 -166 -269 -142 -58 15 -121 65 -143 113
-31 70 -22 177 16 177 10 0 15 -10 15 -31 0 -41 54 -94 106 -103 42 -8 47 -5
62 50 28 96 102 139 172 98z"/>
<path d="M7330 10043 c-220 -38 -401 -189 -471 -393 -30 -89 -37 -232 -14
-319 69 -267 295 -441 572 -441 155 0 304 57 415 159 120 111 180 249 180 416
1 165 -50 285 -171 406 -85 85 -172 135 -282 163 -60 15 -170 19 -229 9z m233
-287 c72 -35 138 -107 166 -179 78 -209 -77 -428 -303 -429 -139 0 -239 60
-298 180 -29 58 -33 77 -32 142 1 146 85 259 229 307 63 21 173 11 238 -21z"/>
<path d="M7330 9649 c-32 -13 -78 -57 -96 -91 -8 -15 -14 -52 -14 -83 0 -175
192 -272 324 -163 52 43 76 95 76 166 0 108 -73 173 -200 179 -36 1 -76 -2
-90 -8z"/>
<path d="M4917 9475 c-10 -140 -9 -197 2 -320 l8 -90 2 66 c1 51 5 68 17 73 9
3 120 6 248 6 262 0 266 1 266 74 0 59 -28 66 -282 66 -117 0 -220 4 -228 10
-10 6 -16 38 -20 122 l-5 113 -8 -120z"/>
<path d="M9397 9322 c-24 -26 -22 -79 2 -92 12 -6 112 -10 255 -10 l236 0 0
60 0 60 -238 0 c-219 0 -240 -2 -255 -18z"/>
<path d="M9691 7663 c-65 -28 -118 -72 -211 -175 -51 -57 -127 -139 -169 -184
-42 -44 -116 -125 -166 -179 -169 -187 -241 -253 -285 -265 -36 -10 -435 -8
-628 2 -36 2 -47 -2 -63 -22 -28 -37 -25 -84 8 -109 37 -30 64 -34 98 -17 25
13 76 16 303 16 170 0 272 -4 272 -10 0 -13 -306 -347 -335 -366 -21 -14 -26
-13 -56 5 -78 48 -181 13 -214 -72 -22 -58 -8 -113 39 -155 72 -63 174 -46
236 40 29 40 144 168 271 302 33 35 61 56 67 52 9 -5 12 -72 12 -227 l0 -219
-47 -32 c-72 -49 -278 -259 -291 -297 -10 -29 -9 -35 13 -57 13 -13 30 -24 38
-24 7 0 50 40 96 90 122 133 226 208 347 249 53 19 183 50 208 51 5 0 2 7 -5
16 -17 21 -39 85 -33 96 9 14 -54 9 -127 -12 -40 -11 -76 -17 -80 -14 -12 7
-12 596 0 626 10 25 34 53 144 168 40 41 94 100 121 130 27 30 72 80 100 110
28 30 96 105 151 165 108 119 156 162 191 171 25 6 39 38 50 117 7 53 2 56
-55 30z"/>
<path d="M808 6572 l-88 -3 0 -942 c0 -518 4 -948 8 -955 7 -9 56 -12 213 -10
l204 3 3 953 2 952 -27 2 c-51 3 -227 3 -315 0z"/>
<path d="M3557 6568 c-11 -9 -19 -32 -22 -68 -3 -30 -10 -84 -15 -120 -5 -36
-14 -108 -20 -160 -20 -185 -56 -449 -81 -607 -47 -296 -61 -360 -99 -458 -16
-43 -52 -111 -70 -135 -16 -21 -29 -26 -87 -30 l-68 -5 -3 -392 -2 -393 140 0
c137 0 140 0 145 23 6 26 23 191 34 325 4 51 12 97 17 102 7 7 201 9 524 8
l514 -3 8 -35 c7 -36 25 -184 37 -320 3 -41 10 -81 14 -87 6 -9 46 -13 143
-13 l134 0 0 88 c3 459 -2 687 -13 694 -7 4 -40 8 -73 8 -42 0 -65 5 -74 15
-9 11 -11 194 -9 784 2 424 -1 774 -5 778 -4 5 -243 9 -530 11 -410 2 -525 0
-539 -10z m649 -312 c18 -14 19 -34 22 -629 2 -515 0 -616 -11 -626 -21 -17
-639 -11 -644 6 -3 7 9 26 26 42 69 68 156 238 181 356 42 193 57 283 70 405
6 52 15 124 20 160 5 36 12 111 16 168 9 133 7 132 174 132 93 0 131 -4 146
-14z"/>
<path d="M1494 6546 c-3 -13 -3 -138 0 -278 3 -139 5 -558 5 -930 l1 -678 210
0 210 0 0 399 c0 220 3 406 6 415 5 14 41 16 300 16 162 0 295 -1 296 -2 1 -2
5 -187 8 -413 l5 -410 207 -3 208 -2 2 942 c2 519 1 949 -1 956 -2 9 -53 12
-212 12 l-209 0 0 -365 c0 -350 -1 -365 -19 -375 -26 -14 -546 -14 -572 0 -18
10 -19 25 -19 375 l0 365 -210 0 -210 0 -6 -24z"/>
<path d="M9570 5792 c0 -592 -3 -781 -12 -790 -16 -16 -434 -17 -444 -1 -3 6
-6 179 -5 384 2 246 -1 375 -8 379 -6 4 -44 -44 -85 -107 -73 -111 -247 -347
-293 -397 l-23 -25 2 -285 3 -285 1049 -3 c767 -1 1052 1 1062 9 12 10 14 172
14 955 l0 944 -205 0 -205 0 0 -780 0 -780 -22 -12 c-18 -10 -73 -12 -228 -8
l-205 5 -3 788 -2 787 -195 0 -195 0 0 -778z"/>
<path d="M11192 5618 l3 -953 248 0 248 0 14 25 c7 14 25 59 40 100 15 41 31
85 36 98 5 12 14 34 20 50 6 15 15 35 20 44 5 10 9 23 9 30 0 11 54 161 82
228 20 48 24 59 100 270 23 65 32 86 46 120 6 14 22 59 37 100 28 80 42 114
56 142 5 10 9 26 9 36 0 10 3 22 7 25 3 4 14 28 23 54 31 86 55 133 65 130 13
-5 9 -160 -7 -262 -9 -58 -13 -234 -13 -635 l0 -555 191 -3 c174 -2 192 -1
198 15 4 9 9 434 12 944 4 784 2 928 -10 938 -9 8 -84 11 -257 9 l-243 -3 -34
-90 c-18 -49 -37 -99 -42 -110 -5 -11 -29 -76 -55 -145 -26 -69 -50 -134 -55
-145 -4 -11 -13 -36 -20 -55 -7 -19 -18 -48 -25 -65 -8 -16 -23 -57 -35 -90
-12 -33 -26 -70 -31 -82 -5 -13 -13 -33 -18 -45 -5 -13 -30 -79 -56 -148 -51
-136 -57 -153 -73 -190 -6 -14 -18 -49 -28 -79 -22 -72 -80 -197 -94 -206 -26
-16 -29 18 -10 130 6 39 14 108 18 155 4 47 10 90 14 95 5 8 14 976 9 1053
l-1 22 -200 0 -200 0 2 -952z"/>
<path d="M12984 6545 c-10 -38 5 -1868 15 -1878 10 -10 618 -1 761 12 58 5
125 14 150 19 25 6 59 14 75 17 17 4 39 10 50 15 11 4 43 16 70 25 28 10 62
26 77 36 14 11 30 19 34 19 20 0 111 110 133 160 38 88 39 92 46 150 21 170
-10 292 -100 382 -42 43 -151 108 -181 108 -8 0 -14 5 -14 10 0 6 -13 10 -29
10 -17 0 -33 5 -36 10 -3 6 -15 10 -26 10 -12 0 -19 7 -19 19 0 23 14 35 65
52 22 8 42 16 45 19 3 3 18 12 35 20 42 21 127 110 149 156 10 21 22 47 27 56
13 26 11 208 -4 248 -58 166 -154 241 -382 301 -122 32 -240 41 -602 46 l-332
4 -7 -26z m663 -265 c121 -17 154 -29 199 -76 36 -36 43 -52 53 -108 27 -156
-50 -267 -205 -295 -81 -15 -256 -14 -277 2 -16 11 -17 34 -15 237 l3 224 25
13 c31 16 113 16 217 3z m88 -760 c3 -5 17 -10 30 -10 36 0 107 -35 136 -66
23 -26 37 -48 70 -116 12 -25 11 -165 -1 -173 -5 -3 -10 -16 -10 -29 0 -12
-16 -41 -35 -63 -65 -76 -157 -103 -355 -103 -76 0 -145 3 -154 6 -14 5 -16
39 -16 269 0 145 3 270 6 279 5 14 29 16 164 16 95 0 161 -4 165 -10z"/>
<path d="M6809 5623 c-56 -6 -79 -73 -39 -113 19 -19 33 -20 293 -20 199 0
276 -3 285 -12 13 -13 17 -202 6 -232 -5 -13 -23 -16 -94 -16 -49 0 -100 -4
-114 -10 -51 -19 -60 -96 -13 -122 12 -7 67 -15 122 -18 l100 -5 3 -234 c3
-278 2 -280 -81 -282 l-52 -2 45 -8 c25 -4 83 -8 130 -8 l85 -1 -3 270 -3 270
101 0 c100 0 102 1 132 30 24 25 29 36 23 58 -12 50 -28 57 -143 62 l-107 5
-3 119 c-2 89 1 121 10 128 7 4 133 8 280 8 254 0 268 1 278 19 5 11 10 35 10
53 0 67 42 63 -617 64 -329 1 -614 -1 -634 -3z"/>
<path d="M6022 5378 c10 -17 14 -110 16 -358 3 -210 8 -340 14 -347 8 -10 62
-13 209 -13 232 0 205 -21 213 162 l6 118 -47 42 c-100 89 -267 256 -336 335
-71 81 -100 105 -75 61z"/>
</g>
</svg>
